#Comment line ignore any data following # character 
#Hierarchical Translation and Rotation (.htr) file 
[Header]	
#Header keywords are followed by a single value 
FileType HTR		#Single word string
DataType HTRS		#Translation followed by rotation and scale data
FileVersion 1		#integer
NumSegments 64		#integer
NumFrames 3		#integer
DataFrameRate 30		#integer, data frame rate in this file
EulerRotationOrder ZYX
CalibrationUnits mm
RotationUnits Degrees
GlobalAxisofGravity Y
BoneLengthAxis Y
ScaleFactor 1.00
[SegmentNames&Hierarchy]
#CHILD	PARENT
Pinger_Root GLOBAL
Pelvis Pinger_Root
L_Hip Pelvis
R_Hip Pelvis
Rear_Leg01 Pelvis
Spine1 Pelvis
L_Leg01 L_Hip
L_Leg02 L_Leg01
L_Leg03 L_Leg02
L_Foot L_Leg03
L_Toe1_01 L_Foot
L_Toe2_01 L_Foot
L_Toe3_01 L_Foot
planeAlignerLeft L_Foot
L_Toe1_02 L_Toe1_01
L_Toe1_03 L_Toe1_02
L_Toe2_02 L_Toe2_01
L_Toe2_03 L_Toe2_02
L_Toe3_02 L_Toe3_01
L_Toe3_03 L_Toe3_02
planeLockWeightLeft planeAlignerLeft
R_Leg01 R_Hip
R_Leg02 R_Leg01
R_Leg03 R_Leg02
R_Foot R_Leg03
planeAlignerRight R_Foot
R_Toe1_01 R_Foot
R_Toe2_01 R_Foot
R_Toe3_01 R_Foot
planeLockWeightRight planeAlignerRight
R_Toe1_02 R_Toe1_01
R_Toe1_03 R_Toe1_02
R_Toe2_02 R_Toe2_01
R_Toe2_03 R_Toe2_02
R_Toe3_02 R_Toe3_01
R_Toe3_03 R_Toe3_02
Rear_Leg02 Rear_Leg01
Rear_Leg03 Rear_Leg02
Rear_Leg04 Rear_Leg03
Rear_Foot Rear_Leg04
planeAlignerCenter Rear_Foot
Rear_Toe1_01 Rear_Foot
Rear_Toe2_01 Rear_Foot
Rear_Toe3_01 Rear_Foot
planeLockWeightCenter planeAlignerCenter
Rear_Toe1_02 Rear_Toe1_01
Rear_Toe1_03 Rear_Toe1_02
Rear_Toe2_02 Rear_Toe2_01
Rear_Toe2_03 Rear_Toe2_02
Rear_Toe3_02 Rear_Toe3_01
Rear_Toe3_03 Rear_Toe3_02
Back_Bone Spine1
Head Spine1
Motor_Bone Back_Bone
Ping_Mechanism Back_Bone
BN_LookIK Head
bottomMouth Head
L_Mouth01 Head
L_mouthFront Head
mouthGun Head
R_Mouth01 Head
R_mouthFront Head
TopMouth Head
weapon_bone Head
[BasePosition]
#SegmentName Tx, Ty, Tz, Rx, Ry, Rz, BoneLength
Pinger_Root 0.000000 0.000000 0.000000 -90.000000 0.000000 0.000000 10.000000 
Pelvis 0.000000 0.000000 0.000000 0.000000 0.000000 0.000000 10.000000 
L_Hip 0.000000 0.000000 0.000000 0.000000 0.000000 0.000000 10.000000 
R_Hip 0.000000 0.000000 0.000000 0.000000 0.000000 0.000000 10.000000 
Rear_Leg01 0.000000 0.000000 0.000000 0.000000 0.000000 0.000000 10.000000 
Spine1 0.000000 0.000000 0.000000 0.000000 0.000000 0.000000 10.000000 
L_Leg01 0.000000 0.000000 0.000000 0.000000 0.000000 0.000000 10.000000 
L_Leg02 0.000000 0.000000 0.000000 0.000000 0.000000 0.000000 10.000000 
L_Leg03 0.000000 0.000000 0.000000 0.000000 0.000000 0.000000 10.000000 
L_Foot 0.000000 0.000000 0.000000 0.000000 0.000000 0.000000 10.000000 
L_Toe1_01 0.000000 0.000000 0.000000 0.000000 0.000000 0.000000 10.000000 
L_Toe2_01 0.000000 0.000000 0.000000 0.000000 0.000000 0.000000 10.000000 
L_Toe3_01 0.000000 0.000000 0.000000 0.000000 0.000000 0.000000 10.000000 
planeAlignerLeft 0.000000 0.000000 0.000000 0.000000 0.000000 0.000000 10.000000 
L_Toe1_02 0.000000 0.000000 0.000000 0.000000 0.000000 0.000000 10.000000 
L_Toe1_03 0.000000 0.000000 0.000000 0.000000 0.000000 0.000000 10.000000 
L_Toe2_02 0.000000 0.000000 0.000000 0.000000 0.000000 0.000000 10.000000 
L_Toe2_03 0.000000 0.000000 0.000000 0.000000 0.000000 0.000000 10.000000 
L_Toe3_02 0.000000 0.000000 0.000000 0.000000 0.000000 0.000000 10.000000 
L_Toe3_03 0.000000 0.000000 0.000000 0.000000 0.000000 0.000000 10.000000 
planeLockWeightLeft 0.000000 0.000000 0.000000 0.000000 0.000000 0.000000 10.000000 
R_Leg01 0.000000 0.000000 0.000000 0.000000 0.000000 0.000000 10.000000 
R_Leg02 0.000000 0.000000 0.000000 0.000000 0.000000 0.000000 10.000000 
R_Leg03 0.000000 0.000000 0.000000 0.000000 0.000000 0.000000 10.000000 
R_Foot 0.000000 0.000000 0.000000 0.000000 0.000000 0.000000 10.000000 
planeAlignerRight 0.000000 0.000000 0.000000 0.000000 0.000000 0.000000 10.000000 
R_Toe1_01 0.000000 0.000000 0.000000 0.000000 0.000000 0.000000 10.000000 
R_Toe2_01 0.000000 0.000000 0.000000 0.000000 0.000000 0.000000 10.000000 
R_Toe3_01 0.000000 0.000000 0.000000 0.000000 0.000000 0.000000 10.000000 
planeLockWeightRight 0.000000 0.000000 0.000000 0.000000 0.000000 0.000000 10.000000 
R_Toe1_02 0.000000 0.000000 0.000000 0.000000 0.000000 0.000000 10.000000 
R_Toe1_03 0.000000 0.000000 0.000000 0.000000 0.000000 0.000000 10.000000 
R_Toe2_02 0.000000 0.000000 0.000000 0.000000 0.000000 0.000000 10.000000 
R_Toe2_03 0.000000 0.000000 0.000000 0.000000 0.000000 0.000000 10.000000 
R_Toe3_02 0.000000 0.000000 0.000000 0.000000 0.000000 0.000000 10.000000 
R_Toe3_03 0.000000 0.000000 0.000000 0.000000 0.000000 0.000000 10.000000 
Rear_Leg02 0.000000 0.000000 0.000000 0.000000 0.000000 0.000000 10.000000 
Rear_Leg03 0.000000 0.000000 0.000000 0.000000 0.000000 0.000000 10.000000 
Rear_Leg04 0.000000 0.000000 0.000000 0.000000 0.000000 0.000000 10.000000 
Rear_Foot 0.000000 0.000000 0.000000 0.000000 0.000000 0.000000 10.000000 
planeAlignerCenter 0.000000 0.000000 0.000000 0.000000 0.000000 0.000000 10.000000 
Rear_Toe1_01 0.000000 0.000000 0.000000 0.000000 0.000000 0.000000 10.000000 
Rear_Toe2_01 0.000000 0.000000 0.000000 0.000000 0.000000 0.000000 10.000000 
Rear_Toe3_01 0.000000 0.000000 0.000000 0.000000 0.000000 0.000000 10.000000 
planeLockWeightCenter 0.000000 0.000000 0.000000 0.000000 0.000000 0.000000 10.000000 
Rear_Toe1_02 0.000000 0.000000 0.000000 0.000000 0.000000 0.000000 10.000000 
Rear_Toe1_03 0.000000 0.000000 0.000000 0.000000 0.000000 0.000000 10.000000 
Rear_Toe2_02 0.000000 0.000000 0.000000 0.000000 0.000000 0.000000 10.000000 
Rear_Toe2_03 0.000000 0.000000 0.000000 0.000000 0.000000 0.000000 10.000000 
Rear_Toe3_02 0.000000 0.000000 0.000000 0.000000 0.000000 0.000000 10.000000 
Rear_Toe3_03 0.000000 0.000000 0.000000 0.000000 0.000000 0.000000 10.000000 
Back_Bone 0.000000 0.000000 0.000000 0.000000 0.000000 0.000000 10.000000 
Head 0.000000 0.000000 0.000000 0.000000 0.000000 0.000000 10.000000 
Motor_Bone 0.000000 0.000000 0.000000 0.000000 0.000000 0.000000 10.000000 
Ping_Mechanism 0.000000 0.000000 0.000000 0.000000 0.000000 0.000000 10.000000 
BN_LookIK 0.000000 0.000000 0.000000 0.000000 0.000000 0.000000 10.000000 
bottomMouth 0.000000 0.000000 0.000000 0.000000 0.000000 0.000000 10.000000 
L_Mouth01 0.000000 0.000000 0.000000 0.000000 0.000000 0.000000 10.000000 
L_mouthFront 0.000000 0.000000 0.000000 0.000000 0.000000 0.000000 10.000000 
mouthGun 0.000000 0.000000 0.000000 0.000000 0.000000 0.000000 10.000000 
R_Mouth01 0.000000 0.000000 0.000000 0.000000 0.000000 0.000000 10.000000 
R_mouthFront 0.000000 0.000000 0.000000 0.000000 0.000000 0.000000 10.000000 
TopMouth 0.000000 0.000000 0.000000 0.000000 0.000000 0.000000 10.000000 
weapon_bone 0.000000 0.000000 0.000000 0.000000 0.000000 0.000000 10.000000 
#Beginning of Data. Separated by tabs
#Fr	Tx	Ty	Tz	Rx	Ry	Rz	SF
[Pinger_Root]
283 0.000000 0.000000 0.000000 -0.000075 -0.000000 -0.000020 0.000000
284 0.000000 0.000000 0.000000 -0.000075 -0.000000 -0.000020 0.000000
285 0.000000 0.000000 0.000000 -0.000075 -0.000000 -0.000020 0.000000
[Pelvis]
283 -432.930359 1135.739136 3545.833008 -5.179284 -81.210632 -6.959244 3748.368164
284 -433.052338 1135.739136 3542.782715 -4.965420 -80.837708 -7.169309 3745.497070
285 -433.059479 1135.739136 3542.580811 -4.768074 -80.464485 -7.362827 3745.306885
[L_Hip]
283 5.766392 125.831482 872.656799 -170.557617 -57.236065 91.362663 881.701050
284 5.766392 125.831482 872.656799 -170.557617 -57.236065 91.362663 881.701050
285 5.766392 125.831482 872.656799 -170.557617 -57.236065 91.362663 881.701050
[R_Hip]
283 5.765438 125.836372 -872.654907 -23.679699 56.318928 52.182491 881.699829
284 5.765438 125.836372 -872.654907 -23.050438 56.499321 52.937954 881.699829
285 5.765438 125.836372 -872.654907 -22.413963 56.675072 53.700466 881.699829
[Rear_Leg01]
283 -192.298416 -925.602966 -0.001907 -171.696320 19.457201 -113.061943 945.367432
284 -192.298416 -925.602966 -0.001907 -171.306625 19.609600 -112.923134 945.367432
285 -192.298416 -925.602966 -0.001907 -170.916153 19.761120 -112.783112 945.367432
[Spine1]
283 290.604584 5.007505 0.000477 11.926222 -28.367531 12.281186 290.647736
284 290.604584 5.007505 0.000477 11.828559 -28.731270 12.327258 290.647736
285 290.604584 5.007505 0.000477 11.730210 -29.094954 12.374201 290.647736
[L_Leg01]
283 761.932007 -0.002384 -0.069261 26.225086 -17.072405 -63.241241 761.932068
284 761.932007 -0.002384 -0.069261 26.288710 -17.192472 -63.855602 761.932068
285 761.932007 -0.002384 -0.069261 26.353716 -17.311872 -64.470512 761.932068
[L_Leg02]
283 1441.140503 -0.000954 -0.000715 6.873555 2.544530 -124.658234 1441.140503
284 1441.140503 -0.000954 -0.000715 6.807582 2.478698 -123.883186 1441.140503
285 1441.140503 -0.000954 -0.000715 6.740719 2.413756 -123.107986 1441.140503
[L_Leg03]
283 1686.963989 -0.000715 -0.000954 -0.116348 0.072065 141.815964 1686.963989
284 1686.963989 -0.000715 -0.000954 -0.115205 0.071269 141.631577 1686.963989
285 1686.963989 -0.000715 -0.000954 -0.114059 0.070476 141.447220 1686.963989
[L_Foot]
283 3041.570068 -30.715107 11.297464 8.240530 13.301167 53.947887 3041.746094
284 3041.570068 -30.715107 11.297464 8.207275 13.326062 53.743500 3041.746094
285 3041.570068 -30.715107 11.297464 8.173924 13.350834 53.539066 3041.746094
[L_Toe1_01]
283 -188.216690 -224.732346 -21.137953 94.536530 -11.874324 -178.539001 293.899567
284 -188.216690 -224.732346 -21.137953 94.536530 -11.874324 -178.539001 293.899567
285 -188.216690 -224.732346 -21.137953 94.536530 -11.874324 -178.539001 293.899567
[L_Toe2_01]
283 200.746536 -219.926590 148.838394 -89.328217 -33.857212 -48.528934 332.896027
284 200.746536 -219.926590 148.838394 -89.328217 -33.857212 -48.528934 332.896027
285 200.746536 -219.926590 148.838394 -89.328217 -33.857212 -48.528934 332.896027
[L_Toe3_01]
283 188.832520 -219.859131 -191.078659 -97.060066 10.776803 -57.831131 347.140900
284 188.832520 -219.859131 -191.078659 -97.061066 10.777292 -57.833794 347.140900
285 188.832520 -219.859131 -191.078659 -97.062073 10.777776 -57.836445 347.140900
[planeAlignerLeft]
283 0.812531 -811.448792 -0.314951 0.000000 -90.000000 -90.001900 811.449280
284 0.812531 -811.448792 -0.314951 0.000000 -90.000000 -90.001900 811.449280
285 0.812531 -811.448792 -0.314951 0.000000 -90.000000 -90.001900 811.449280
[L_Toe1_02]
283 413.761139 0.000477 0.000000 0.001385 -25.855608 0.001385 413.761139
284 413.761139 0.000477 0.000000 0.001385 -25.855614 0.001385 413.761139
285 413.761139 0.000477 0.000000 0.001385 -25.855606 0.001385 413.761139
[L_Toe1_03]
283 464.317322 0.000358 -0.000089 0.004342 58.635971 0.004342 464.317322
284 464.317322 0.000358 -0.000089 0.004342 58.635971 0.004342 464.317322
285 464.317322 0.000358 -0.000089 0.004342 58.635971 0.004342 464.317322
[L_Toe2_02]
283 342.235809 -0.000477 0.000238 0.001191 -70.156403 0.001191 342.235809
284 342.235809 -0.000477 0.000238 0.001191 -70.156403 0.001191 342.235809
285 342.235809 -0.000477 0.000238 0.001191 -70.156403 0.001191 342.235809
[L_Toe2_03]
283 420.210846 -0.000715 0.000000 0.013353 79.915703 0.013353 420.210846
284 420.210846 -0.000715 0.000000 0.013353 79.915703 0.013353 420.210846
285 420.210846 -0.000715 0.000000 0.013353 79.915703 0.013353 420.210846
[L_Toe3_02]
283 329.270111 0.000954 0.000000 0.001176 -83.179474 0.001176 329.270111
284 329.270111 0.000954 0.000000 0.001176 -83.176804 0.001176 329.270111
285 329.270111 0.000954 0.000000 0.001176 -83.174072 0.001176 329.270111
[L_Toe3_03]
283 439.137451 -0.001907 0.000954 179.990875 65.540901 179.998047 439.137451
284 439.137451 -0.001907 0.000954 179.990875 65.540901 179.998047 439.137451
285 439.137451 -0.001907 0.000954 179.990875 65.540901 179.998047 439.137451
[planeLockWeightLeft]
283 -0.000954 0.000238 -0.000305 -0.011826 -0.004376 0.005620 0.001029
284 -0.000954 0.000238 -0.000305 -0.011826 -0.004376 0.005620 0.001029
285 -0.000954 0.000238 -0.000305 -0.011826 -0.004376 0.005620 0.001029
[R_Leg01]
283 761.455627 -0.001907 -0.000358 68.757439 -7.731388 74.442848 761.455688
284 761.455627 -0.001907 -0.000358 68.508202 -8.071803 73.707817 761.455688
285 761.455627 -0.001907 -0.000358 68.263168 -8.415350 72.973610 761.455688
[R_Leg02]
283 1441.140625 0.000000 -0.000238 -1.135598 -0.484712 -138.282150 1441.140625
284 1441.140625 0.000000 -0.000238 -1.156622 -0.506969 -139.662231 1441.140625
285 1441.140625 0.000000 -0.000238 -1.177102 -0.529725 -141.042267 1441.140625
[R_Leg03]
283 1686.963989 0.000954 0.001431 0.114499 -0.070041 140.945572 1686.963989
284 1686.963989 0.000954 0.001431 0.115915 -0.071059 141.209473 1686.963989
285 1686.963989 0.000954 0.001431 0.115765 -0.071304 141.452148 1686.963989
[R_Foot]
283 3041.560059 -30.531288 -11.204481 6.363908 -46.559223 42.876934 3041.734131
284 3041.560059 -30.531288 -11.204481 6.547486 -46.527485 43.270916 3041.734131
285 3041.560059 -30.531288 -11.204481 6.731259 -46.496620 43.664795 3041.734131
[planeAlignerRight]
283 -0.635147 -812.270569 -0.364304 0.000000 -89.960434 -90.005180 812.270874
284 -0.635147 -812.270569 -0.364304 0.000000 -89.960434 -90.005180 812.270874
285 -0.635147 -812.270569 -0.364304 0.000000 -89.960434 -90.005180 812.270874
[R_Toe1_01]
283 -188.383347 -224.864899 21.052242 58.205090 26.475029 -166.995789 294.101532
284 -188.383347 -224.864899 21.052242 58.205021 26.474890 -166.995880 294.101532
285 -188.383347 -224.864899 21.052242 58.204967 26.474760 -166.995987 294.101532
[R_Toe2_01]
283 200.637817 -220.002121 -148.787384 -55.994591 39.712746 -29.524965 332.857574
284 200.637817 -220.002121 -148.787384 -55.994591 39.712746 -29.524965 332.857574
285 200.637817 -220.002121 -148.787384 -55.994591 39.712746 -29.524965 332.857574
[R_Toe3_01]
283 188.606735 -220.092957 191.126343 -53.843666 11.159731 -73.287056 347.192566
284 188.606735 -220.092957 191.126343 -53.843678 11.159642 -73.287224 347.192566
285 188.606735 -220.092957 191.126343 -53.843689 11.159561 -73.287399 347.192566
[planeLockWeightRight]
283 -0.000477 0.000000 0.000000 -0.011823 -0.004379 -0.000027 0.000477
284 -0.000477 0.000000 0.000000 -0.011823 -0.004379 -0.000027 0.000477
285 -0.000477 0.000000 0.000000 -0.011823 -0.004379 -0.000027 0.000477
[R_Toe1_02]
283 413.762085 0.000477 -0.000119 0.001386 -25.718611 0.001386 413.762085
284 413.762085 0.000477 -0.000119 0.001386 -25.718611 0.001386 413.762085
285 413.762085 0.000477 -0.000119 0.001386 -25.718618 0.001386 413.762085
[R_Toe1_03]
283 464.317810 0.000000 0.001088 0.003184 46.742985 0.003184 464.317810
284 464.317810 0.000000 0.001088 0.003184 46.742985 0.003184 464.317810
285 464.317810 0.000000 0.001088 0.003184 46.742985 0.003184 464.317810
[R_Toe2_02]
283 342.234741 -0.000954 0.000238 0.001235 -53.656574 0.001235 342.234741
284 342.234741 -0.000954 0.000238 0.001235 -53.656754 0.001235 342.234741
285 342.234741 -0.000954 0.000238 0.001235 -53.656963 0.001235 342.234741
[R_Toe2_03]
283 420.210846 0.000715 -0.000268 -0.003601 51.665394 0.000100 420.210846
284 420.210846 0.000715 -0.000268 -0.003601 51.665741 0.000100 420.210846
285 420.210846 0.000715 -0.000268 -0.003601 51.666080 0.000100 420.210846
[R_Toe3_02]
283 329.270355 -0.000477 -0.000954 -0.002373 -66.445023 -0.002373 329.270355
284 329.270355 -0.000477 -0.000954 -0.002373 -66.445053 -0.002373 329.270355
285 329.270355 -0.000477 -0.000954 -0.002373 -66.445023 -0.002373 329.270355
[R_Toe3_03]
283 439.137939 0.000238 0.001431 0.005868 66.925125 0.005868 439.137939
284 439.137939 0.000238 0.001431 0.005868 66.925308 0.005868 439.137939
285 439.137939 0.000238 0.001431 0.005868 66.925514 0.005868 439.137939
[Rear_Leg02]
283 1162.777710 -0.029802 0.005960 -6.362479 12.184438 -97.275238 1162.777710
284 1162.777710 -0.029802 0.005960 -6.370210 12.180923 -97.309181 1162.777710
285 1162.777710 -0.029802 0.005960 -6.377936 12.177404 -97.343109 1162.777710
[Rear_Leg03]
283 607.192505 -0.013351 -0.073195 0.010400 -0.005291 70.287422 607.192505
284 607.192505 -0.013351 -0.073195 0.010400 -0.005291 70.288475 607.192505
285 607.192505 -0.013351 -0.073195 0.010400 -0.005291 70.289474 607.192505
[Rear_Leg04]
283 995.874512 -0.020504 -0.011921 -0.040791 -0.017468 70.998009 995.874573
284 995.874512 -0.020504 -0.011921 -0.040793 -0.017463 71.011520 995.874573
285 995.874512 -0.020504 -0.011921 -0.040795 -0.017458 71.025024 995.874573
[Rear_Foot]
283 3096.176270 -0.067472 -0.041425 40.184135 72.120071 -131.481628 3096.176270
284 3096.176270 -0.067472 -0.041425 40.087967 72.095322 -131.532806 3096.176270
285 3096.176270 -0.067472 -0.041425 39.992012 72.070526 -131.583755 3096.176270
[planeAlignerCenter]
283 0.350077 0.966311 -838.790894 0.000009 0.000003 -179.999985 838.791565
284 0.350077 0.966311 -838.790894 0.000009 0.000003 -179.999985 838.791565
285 0.350077 0.966311 -838.790894 0.000009 0.000003 -179.999985 838.791565
[Rear_Toe1_01]
283 0.653352 83.966492 -371.173737 5.379987 30.461653 103.607674 380.553192
284 0.653352 83.966492 -371.173737 5.379989 30.461653 103.607689 380.553192
285 0.653352 83.966492 -371.173737 5.379989 30.461668 103.607689 380.553192
[Rear_Toe2_01]
283 178.200760 -294.826019 -362.060547 -8.741129 22.951086 -73.397560 499.765686
284 178.200760 -294.826019 -362.060547 -8.741129 22.951086 -73.397560 499.765686
285 178.200760 -294.826019 -362.060547 -8.741129 22.951086 -73.397560 499.765686
[Rear_Toe3_01]
283 -153.359680 -308.780914 -362.060852 3.772577 19.496872 -119.572105 499.952881
284 -153.359680 -308.780914 -362.060852 3.772577 19.496872 -119.572105 499.952881
285 -153.359680 -308.780914 -362.060852 3.772577 19.496872 -119.572105 499.952881
[planeLockWeightCenter]
283 -0.000062 0.000238 0.000000 -0.011814 -0.004373 -0.000015 0.000246
284 -0.000062 0.000238 0.000000 -0.011814 -0.004373 -0.000015 0.000246
285 -0.000062 0.000238 0.000000 -0.011814 -0.004373 -0.000015 0.000246
[Rear_Toe1_02]
283 379.707825 0.194073 0.000477 -0.000337 -32.964039 0.006987 379.707855
284 379.707825 0.194073 0.000477 -0.000337 -32.964039 0.006987 379.707855
285 379.707825 0.194073 0.000477 -0.000337 -32.964039 0.006987 379.707855
[Rear_Toe1_03]
283 500.129700 0.165701 0.000119 -0.004070 60.568069 -0.000455 500.129761
284 500.129700 0.165701 0.000119 -0.004070 60.568069 -0.000455 500.129761
285 500.129700 0.165701 0.000119 -0.004070 60.568069 -0.000455 500.129761
[Rear_Toe2_02]
283 340.494507 0.000238 -0.000954 0.001179 -79.094414 0.001179 340.494507
284 340.494507 0.000238 -0.000954 0.001179 -79.094398 0.001179 340.494507
285 340.494507 0.000238 -0.000954 0.001179 -79.094414 0.001179 340.494507
[Rear_Toe2_03]
283 433.103577 0.000000 0.000238 0.031673 85.752869 0.031673 433.103546
284 433.103577 0.000000 0.000238 0.031673 85.752869 0.031673 433.103546
285 433.103577 0.000000 0.000238 0.031673 85.752777 0.031673 433.103546
[Rear_Toe3_02]
283 340.494141 -0.000358 -0.000477 -0.002471 -50.096046 -0.002471 340.494171
284 340.494141 -0.000358 -0.000477 -0.002471 -50.096046 -0.002471 340.494171
285 340.494141 -0.000358 -0.000477 -0.002471 -50.096046 -0.002471 340.494171
[Rear_Toe3_03]
283 433.103577 0.001431 -0.000238 0.000412 44.441467 -0.003381 433.103546
284 433.103577 0.001431 -0.000238 0.000412 44.441467 -0.003381 433.103546
285 433.103577 0.001431 -0.000238 0.000412 44.441471 -0.003381 433.103546
[Back_Bone]
283 1312.175781 -701.934692 0.000954 14.136225 2.656413 -96.538445 1488.125488
284 1312.175781 -701.934692 0.000954 14.287546 2.763845 -96.571617 1488.125488
285 1312.175781 -701.934692 0.000954 14.298795 2.771642 -96.574074 1488.125488
[Head]
283 1406.159424 809.709290 0.001431 6.912912 16.468502 35.965801 1622.625488
284 1406.159424 809.709290 0.001431 7.108944 16.379721 36.670654 1622.625488
285 1406.159424 809.709290 0.001431 7.329583 16.285540 37.457893 1622.625488
[Motor_Bone]
283 1158.364380 -417.834747 0.000477 -0.000105 0.000046 -105.985291 1231.419434
284 1158.364380 -417.834747 0.000477 -0.000105 0.000046 -105.985291 1231.419434
285 1158.364380 -417.834747 0.000477 -0.000105 0.000046 -105.985291 1231.419434
[Ping_Mechanism]
283 1212.223022 -360.734863 35.833080 0.000103 -0.000053 82.120995 1265.266113
284 1210.435669 -368.342804 37.128975 0.000103 -0.000053 82.120995 1265.784058
285 1208.648315 -375.950714 38.424862 0.000103 -0.000053 82.120995 1266.351563
[BN_LookIK]
283 193.241119 1380.371704 -0.002861 0.000000 89.965736 -31.038179 1393.832153
284 193.241119 1380.371704 -0.002861 0.000000 89.965736 -31.038179 1393.832153
285 193.241119 1380.371704 -0.002861 0.000000 89.965736 -31.038179 1393.832153
[bottomMouth]
283 -435.092926 615.759399 -0.000954 -0.000022 0.000016 73.527184 753.966492
284 -435.092926 615.759399 -0.000954 -0.000022 0.000016 73.527184 753.966492
285 -435.092926 615.759399 -0.000954 -0.000022 0.000016 73.527184 753.966492
[L_Mouth01]
283 554.440979 7.658243 838.222046 150.204178 23.759130 109.605339 1005.027161
284 554.440979 7.658243 838.222046 150.204178 23.759130 109.605339 1005.027161
285 554.440979 7.658243 838.222046 150.204178 23.759130 109.605339 1005.027161
[L_mouthFront]
283 551.629089 934.514771 339.150421 0.000081 2.804060 79.119301 1136.941284
284 551.629089 934.514771 339.150421 0.000081 2.804060 79.119301 1136.941284
285 551.629089 934.514771 339.150421 0.000081 2.804060 79.119301 1136.941284
[mouthGun]
283 55.332661 1627.420898 0.000000 0.000023 0.000009 -11.038128 1628.361328
284 55.332661 1627.420898 0.000000 0.000023 0.000009 -11.038128 1628.361328
285 55.332661 1627.420898 0.000000 0.000023 0.000009 -11.038128 1628.361328
[R_Mouth01]
283 554.442383 7.659197 -838.223938 29.795891 -23.759109 109.605331 1005.029541
284 554.442383 7.659197 -838.223938 29.795891 -23.759109 109.605331 1005.029541
285 554.442383 7.659197 -838.223938 29.795891 -23.759109 109.605331 1005.029541
[R_mouthFront]
283 551.629089 934.514282 -339.151367 0.000029 -2.803930 79.119133 1136.941162
284 551.629089 934.514282 -339.151367 0.000029 -2.803930 79.119133 1136.941162
285 551.629089 934.514282 -339.151367 0.000029 -2.803930 79.119133 1136.941162
[TopMouth]
283 461.269867 -56.106091 -0.008583 -0.000059 -0.000268 92.025169 464.669525
284 461.269867 -56.106091 -0.008583 -0.000059 -0.000268 92.025169 464.669525
285 461.269867 -56.106091 -0.008583 -0.000059 -0.000268 92.025169 464.669525
[weapon_bone]
283 -987.239868 1448.372803 0.001431 0.000000 89.965736 -31.038221 1752.833740
284 -987.239868 1448.372803 0.001431 0.000000 89.965736 -31.038221 1752.833740
285 -987.239868 1448.372803 0.001431 0.000000 89.965736 -31.038221 1752.833740
